<svg id="Groupe_6" data-name="Groupe 6" xmlns="http://www.w3.org/2000/svg" width="157" height="32" viewBox="0 0 157 32">
  <path id="Tracé_4" data-name="Tracé 4" d="M873.6,407.886c0,4.25-4.194,9.419-9.269,9.419a8.151,8.151,0,0,1-2.784-.51c-.6,1.36-2.185,5.883-3.242,7.787.987.918,5.992,4.794,9.2,4.794,2.08,0,1.657-1.6,3.313-1.6a1.8,1.8,0,0,1,1.727,1.9c0,1.972-2.115,4.862-5.956,4.862-4.194,0-9.8-5.2-11.137-6.222a2.677,2.677,0,0,1-1.339.408c-.811,0-3.454-1.088-3.454-2.618v-.034c-.317.034-.423.17-.811.17a1.024,1.024,0,0,1-1.093-.986c0-1.564,2.573-2.652,4.3-2.652h.071c2.82-2.754,4.617-19.96,15.014-19.96A5.2,5.2,0,0,1,873.6,407.886Zm-3.842-1.87c-2.537,0-5.322,4.148-7.049,7.923,4.053-.238,7.648-4.42,7.648-6.9C870.354,406.56,870.249,406.016,869.755,406.016Z" transform="translate(-848.75 -402.544)" fill="#fff"/>
  <path id="Tracé_5" data-name="Tracé 5" d="M985.49,436.927c0,1.515-3.313,5.851-4.3,10.82-.176.987.247,2.538-1.974,2.538-1.269,0-2.819-.987-2.819-3.348,0-2.115,1.692-6.45,2.467-8.141,1.093-2.326,2.291-3.454,4.37-3.454C984.292,435.341,985.49,435.9,985.49,436.927Zm3.56-6.168a2.206,2.206,0,0,0-2.432-2.079c-1.8,0-3.877,1.515-3.877,3.313a2.226,2.226,0,0,0,2.432,2.115C987.146,434.108,989.049,432.486,989.049,430.759Z" transform="translate(-954.793 -424.169)" fill="#fff"/>
  <path id="Tracé_6" data-name="Tracé 6" d="M1031.691,458.291a2.324,2.324,0,0,1,2.326,2.326c0,1.234-2.96,4.617-2.96,7.754,0,.74.247,1.727.67,1.727,1.938,0,5.674-5.463,5.674-9.163,0-1.692-.458-1.974-.458-2.961a2.429,2.429,0,0,1,2.4-2.432c2.291,0,3.137,2.679,3.137,4.969,0,5.181-6.132,13.146-10.926,13.146-2.432,0-4.969-1.233-4.969-6.308C1026.581,463.648,1029.224,458.291,1031.691,458.291Z" transform="translate(-996.767 -447.185)" fill="#fff"/>
  <path id="Tracé_7" data-name="Tracé 7" d="M1127.542,474.073c0,.881.247,1.586,1.022,1.586,1.128,0,2.256-1.375,2.749-2.256a1.075,1.075,0,0,1,.987-.635,2.2,2.2,0,0,1,1.9,2.15c0,1.057-2.573,3.7-5.392,3.7a5.8,5.8,0,0,1-6.027-5.886c0-5.287,4.3-9.9,8.177-9.9,3.454,0,5.463,2.467,5.463,4.617,0,2.538-2.714,4.9-5.463,4.9a4.865,4.865,0,0,1-2.855-.987A7.717,7.717,0,0,0,1127.542,474.073Zm5.322-7.3c0-.529-.176-.634-.493-.634-1.375,0-3.207,2.819-3.207,3s.6.529.846.529A2.95,2.95,0,0,0,1132.864,466.777Z" transform="translate(-1076.835 -453.229)" fill="#fff"/>
  <g id="Groupe_5" data-name="Groupe 5" transform="translate(64.944)">
    <path id="Tracé_8" data-name="Tracé 8" d="M1263.15,408.221a5.371,5.371,0,0,1-5.04,5.417,2.6,2.6,0,0,1-2.819-2.167c0-.542.317-.982,1.092-1.151a3.453,3.453,0,0,0,2.644-3.047c0-.339,0-1.32-2.079-1.32-2.5,0-4.229,1.727-4.229,3.318,0,4.063,6.1,4.029,6.1,6.534a1.306,1.306,0,0,1-1.374,1.151c-.775,0-2.009-.846-3.384-.846-3.489,0-7.084,3.555-7.084,7.076a2.909,2.909,0,0,0,2.714,3.148c1.586,0,4.3-2,5.04-6.263a1.312,1.312,0,0,1,1.41-1.151,3.352,3.352,0,0,1,3.313,3.148c0,3.487-3.348,8.328-9.692,8.328-4.476,0-9.34-2.979-9.34-7.82,0-5.315,4.265-8.531,9.34-9.411a6.443,6.443,0,0,1-2.291-4.773c0-3.927,4.018-6.365,7.754-6.365C1259.062,402.026,1263.15,404.4,1263.15,408.221Z" transform="translate(-1240.418 -402.026)" fill="#fff"/>
    <path id="Tracé_9" data-name="Tracé 9" d="M1366.931,458.291a2.324,2.324,0,0,1,2.326,2.326c0,1.234-2.961,4.617-2.961,7.754,0,.74.247,1.727.67,1.727,1.938,0,5.674-5.463,5.674-9.163,0-1.692-.458-1.974-.458-2.961a2.429,2.429,0,0,1,2.4-2.432c2.291,0,3.137,2.679,3.137,4.969,0,5.181-6.132,13.146-10.926,13.146-2.432,0-4.969-1.233-4.969-6.308C1361.821,463.648,1364.464,458.291,1366.931,458.291Z" transform="translate(-1341.274 -447.649)" fill="#fff"/>
    <path id="Tracé_10" data-name="Tracé 10" d="M1462.783,474.073c0,.881.247,1.586,1.022,1.586,1.128,0,2.256-1.375,2.749-2.256a1.075,1.075,0,0,1,.987-.635,2.2,2.2,0,0,1,1.9,2.15c0,1.057-2.573,3.7-5.392,3.7a5.8,5.8,0,0,1-6.027-5.886c0-5.287,4.3-9.9,8.177-9.9,3.454,0,5.463,2.467,5.463,4.617,0,2.538-2.714,4.9-5.463,4.9a4.865,4.865,0,0,1-2.855-.987A7.717,7.717,0,0,0,1462.783,474.073Zm5.322-7.3c0-.529-.176-.634-.493-.634-1.375,0-3.207,2.819-3.207,3s.6.529.846.529A2.95,2.95,0,0,0,1468.1,466.777Z" transform="translate(-1421.195 -453.703)" fill="#fff"/>
    <path id="Tracé_11" data-name="Tracé 11" d="M1547.721,465.025c1.8,0,3.912,1.339,3.912,3.242s-2.714,5.78-3.842,10.185c-.247.916-.564,1.2-1.48,1.2a2.879,2.879,0,0,1-2.749-3.1c0-2.5,1.938-5.392,3.137-7.19,0-.035.035-.07.035-.106,0-.106-.141-.176-.247-.176a12.446,12.446,0,0,0-3.242,2.15c-5.251,4.723-5.85,8.917-7.93,8.917a2.561,2.561,0,0,1-2.538-2.361c0-3.1,5-13.287,7.331-13.287.811,0,2.326,1.022,2.326,2.009,0,.564-.388.7-1.234,2.256C1541.341,468.69,1545.676,465.025,1547.721,465.025Z" transform="translate(-1483.295 -455.087)" fill="#fff"/>
    <path id="Tracé_12" data-name="Tracé 12" d="M1640.576,426.329c0,1.773-5.146,2.543-7.19,2.543-.564,0-1.375-.033-2.291-.1-2.714,4.416-5.286,8.967-5.286,12.145a5.073,5.073,0,0,0,.282,1.84c.352,1-.952,1.907-2.044,1.907-1.586,0-3.877-.836-3.877-4.115,0-3.245,2.115-7.662,5.251-12.313a25.047,25.047,0,0,0-2.643-.134,31.852,31.852,0,0,0-6.238.736c-.564,0-1.093-.435-1.093-1.338,0-2.576,2.4-3.145,5.11-3.145a34.9,34.9,0,0,1,7.155.836c1.269-1.439,2.467-2.342,3.348-2.342a2,2,0,0,1,2.185,1.84,1.932,1.932,0,0,1-.247.9,11.592,11.592,0,0,0,4.194-.97c.811-.368.987-.5,1.375-.5A2.3,2.3,0,0,1,1640.576,426.329Z" transform="translate(-1551.973 -419.325)" fill="#fff"/>
    <path id="Tracé_13" data-name="Tracé 13" d="M1687.286,474.13c0-1.375.916-3.278,2.749-3.278,1.234,0,2.326.916,2.326,1.727,0,.529-.81,1.41-.81,2.326,0,.634.494.811,1.128.811a2.215,2.215,0,0,0,2.361-2.009c0-2.4-4.124-4.018-4.124-7.19,0-2.608,2.96-5.146,6.661-5.146,2.714,0,6.133,1.375,6.133,4.088,0,1.445-.987,3.1-2.291,3.1a2.207,2.207,0,0,1-2.15-1.833c0-.634.881-1.586.881-2.15,0-.212-.141-.282-.529-.317h-.282a2.665,2.665,0,0,0-2.714,2.291c0,2.185,4.159,3.665,4.159,6.943,0,2.291-2.291,5.6-6.8,5.6C1690.317,479.1,1687.286,476.774,1687.286,474.13Z" transform="translate(-1611.653 -452.492)" fill="#fff"/>
  </g>
  <path id="Tracé_14" data-name="Tracé 14" d="M1019.066,426.236a3.244,3.244,0,0,0-3.244-3.244c-1.792,0-5.407,1.452-5.407,3.244a3.244,3.244,0,0,0,3.244,3.244C1015.451,429.48,1019.066,428.028,1019.066,426.236Z" transform="translate(-983.299 -419.444)" fill="#fff"/>
</svg>
